<svg version="1.0" xmlns="http://www.w3.org/2000/svg"
  viewBox="0 0 1100 1100"
 preserveAspectRatio="xMidYMid meet">

<g transform="translate(0.000000,1072.000000) scale(0.100000,-0.100000)"
fill="#000000" stroke="none">
<path d="M4930 10699 c-58 -5 -175 -18 -260 -29 -1958 -249 -3625 -1569 -4326
-3427 -315 -835 -412 -1751 -283 -2663 215 -1517 1109 -2901 2409 -3730 761
-486 1593 -762 2500 -831 229 -17 787 -6 1001 20 985 120 1844 465 2626 1055
199 149 354 286 549 480 399 400 705 817 974 1330 129 245 287 630 355 865 94
324 23 502 -285 706 -222 148 -458 259 -700 330 -122 35 -269 70 -274 64 -2
-2 -16 -58 -31 -124 -15 -66 -49 -187 -76 -269 -27 -82 -49 -151 -49 -152 0
-1 30 -7 68 -14 247 -46 513 -154 729 -296 l81 -54 -47 -143 c-441 -1312
-1477 -2400 -2771 -2910 -1203 -474 -2529 -444 -3719 85 -366 162 -709 373
-1046 642 -166 133 -531 490 -663 648 -627 756 -990 1617 -1099 2608 -23 216
-23 724 0 940 109 991 472 1852 1099 2608 132 158 497 515 663 648 519 415
1073 702 1695 879 1013 288 2090 235 3070 -152 588 -232 1122 -580 1584 -1033
548 -537 950 -1172 1187 -1877 l47 -143 -81 -54 c-216 -142 -482 -250 -729
-296 -38 -7 -68 -13 -68 -14 0 -1 22 -70 49 -152 27 -82 61 -203 76 -269 15
-66 29 -122 31 -124 5 -6 152 29 274 64 242 71 478 182 700 330 308 204 379
382 285 706 -39 135 -143 410 -220 584 -203 460 -501 929 -836 1320 -129 151
-419 440 -569 569 -740 632 -1642 1056 -2589 1216 -302 51 -438 62 -841 65
-212 2 -432 -1 -490 -6z"/>
<path d="M4590 9079 c-152 -13 -294 -38 -456 -79 -663 -169 -1254 -589 -1627
-1157 -78 -119 -649 -1108 -711 -1232 -135 -268 -227 -562 -273 -876 -24 -169
-24 -581 0 -750 46 -314 138 -608 273 -876 62 -124 633 -1113 711 -1232 464
-707 1240 -1164 2096 -1236 165 -14 1381 -14 1542 0 480 41 918 192 1310 452
312 207 571 463 774 766 32 47 184 304 338 571 380 658 370 640 429 770 l52
115 -24 7 c-59 16 -328 30 -459 24 -352 -17 -584 -70 -817 -187 -165 -83 -285
-171 -553 -408 -191 -169 -280 -239 -419 -333 -263 -176 -549 -282 -861 -318
-119 -13 -819 -13 -943 1 -953 105 -1644 809 -1732 1764 -13 143 -13 847 0
990 64 699 453 1278 1055 1571 202 98 447 168 677 193 124 14 824 14 943 1
312 -36 598 -142 861 -318 139 -94 228 -164 419 -333 268 -237 388 -325 553
-408 233 -117 465 -170 817 -187 131 -6 400 8 459 24 l24 7 -52 115 c-59 130
-49 112 -429 770 -154 267 -306 524 -338 571 -141 211 -362 453 -549 602 -453
362 -965 568 -1535 616 -142 13 -1415 12 -1555 0z"/>
<path d="M5030 7043 c-554 -65 -977 -400 -1145 -906 -66 -200 -70 -247 -70
-777 0 -530 4 -577 70 -777 155 -469 523 -787 1030 -890 79 -16 144 -18 525
-18 377 0 447 2 522 18 226 46 434 148 642 315 37 30 145 122 240 205 305 267
448 369 671 477 291 141 567 208 962 232 207 13 469 2 643 -27 46 -8 85 -13
87 -12 1 2 10 59 19 127 24 171 24 529 0 700 -9 68 -18 125 -19 127 -2 1 -41
-4 -87 -12 -174 -29 -436 -40 -643 -27 -395 24 -671 91 -962 232 -223 108
-366 210 -671 477 -287 251 -385 324 -549 405 -108 54 -190 83 -310 111 -82
18 -127 20 -505 22 -228 2 -431 1 -450 -2z"/>
</g>
</svg>
